<svg version="1.1" id="Layer_1" xmlns="http://www.w3.org/2000/svg" xmlns:xlink="http://www.w3.org/1999/xlink" x="0px" y="0px"
	 width="100%" viewBox="0 0 500 500" enable-background="new 0 0 500 500" xml:space="preserve">
<path fill="#000000" opacity="1.000000" stroke="none" 
	d="
M297.000000,501.000000 
	C198.000031,501.000000 99.500046,501.000000 1.000053,501.000000 
	C1.000035,334.333405 1.000035,167.666794 1.000018,1.000142 
	C167.666565,1.000095 334.333130,1.000095 500.999756,1.000047 
	C500.999847,167.666519 500.999847,334.333038 500.999939,500.999786 
	C433.166656,501.000000 365.333344,501.000000 297.000000,501.000000 
M387.052429,235.426178 
	C387.007721,244.483902 386.936890,253.541718 386.965271,262.599213 
	C386.967682,263.367126 387.632874,264.132904 388.889221,264.963196 
	C391.135773,264.963196 393.382294,264.963196 395.683044,264.963196 
	C395.683044,253.647964 395.683044,242.996918 395.683044,232.022964 
	C393.187775,232.022964 391.027679,231.831589 388.947906,232.155777 
	C388.419434,232.238144 388.146454,233.959549 387.052429,235.426178 
M337.052063,235.426025 
	C337.006927,241.578201 336.850647,247.732269 336.954132,253.881943 
	C337.027924,258.268311 337.450775,262.648773 337.624329,267.753723 
	C336.497040,270.238770 335.270264,272.685272 334.285889,275.225677 
	C333.819214,276.430115 333.815643,277.813995 333.602234,279.116577 
	C334.986816,279.291199 336.583069,279.998596 337.718994,279.547302 
	C342.389496,277.691833 345.494995,273.783386 345.683624,269.068634 
	C346.171753,256.870087 345.847321,244.639023 345.847321,232.025940 
	C343.262329,232.025940 341.103729,231.825104 339.031219,232.158844 
	C338.471924,232.248901 338.173706,233.960327 337.052063,235.426025 
M329.833588,264.278778 
	C329.858368,256.266083 329.883179,248.253418 329.806946,239.496506 
	C326.527771,230.405457 319.196777,228.282898 309.952026,233.747833 
	C309.975250,233.255493 309.998444,232.763168 310.021667,232.270828 
	C306.737335,232.115906 303.453003,231.960968 299.545197,231.776627 
	C300.598267,234.276932 301.163116,235.618057 301.053711,237.482147 
	C300.998260,245.888870 300.913696,254.295670 300.938110,262.702148 
	C300.940247,263.437561 301.657867,264.170898 302.931671,264.964722 
	C305.173309,264.964722 307.414917,264.964722 309.990082,264.964722 
	C309.990082,257.997528 310.186920,251.843445 309.913757,245.710297 
	C309.758270,242.219360 310.992004,240.451492 314.124146,238.884277 
	C317.274078,237.308121 319.087982,238.635315 321.098633,241.236481 
	C321.080017,244.012009 320.951294,246.792145 321.066742,249.562088 
	C321.278503,254.643753 321.634308,259.719421 322.833405,264.934875 
	C324.967682,264.902893 327.101929,264.870911 329.833588,264.278778 
M177.948425,267.622345 
	C179.272919,266.235779 180.597427,264.849182 182.495132,263.013275 
	C188.138596,256.038208 194.425858,249.480286 199.277695,241.992294 
	C206.943542,230.161301 210.858353,217.327057 202.488907,204.060074 
	C194.840347,191.935822 182.546066,186.292480 168.067169,189.925186 
	C158.938095,192.215637 152.737534,198.186386 147.958939,206.671387 
	C147.003586,205.209259 146.359283,204.343246 145.838669,203.408340 
	C138.460861,190.159210 117.301605,184.331314 104.323761,192.787872 
	C95.257614,198.695526 87.852760,210.326279 88.998619,219.380630 
	C90.182358,228.734299 93.567604,237.256287 99.070915,244.820984 
	C100.227272,246.410446 102.953041,246.858170 105.752754,247.972168 
	C113.998840,246.019531 113.998741,246.019531 113.999023,237.880768 
	C113.999146,234.554428 113.471428,231.109375 114.182823,227.942764 
	C114.670486,225.772049 116.596519,222.694092 118.382439,222.299881 
	C122.175026,221.462692 126.332489,221.792343 130.271744,222.243240 
	C134.164612,222.688812 136.184692,225.217087 136.025787,229.354309 
	C135.891846,232.841782 135.937912,236.339981 136.016495,239.830902 
	C136.129242,244.838699 138.217957,246.884781 143.301651,246.985336 
	C146.792953,247.054413 150.286819,246.983398 153.779373,247.002792 
	C158.755585,247.030411 160.874359,249.077621 160.981964,254.137711 
	C161.070358,258.293762 161.053970,262.454071 160.986816,266.610901 
	C160.898758,272.059967 157.918228,274.924316 152.325745,274.992889 
	C148.833603,275.035706 145.340012,274.965546 141.848022,275.013977 
	C139.679749,275.044098 136.570557,274.157745 136.426086,277.425934 
	C136.316971,279.894470 136.992950,283.078308 138.571213,284.789032 
	C141.263382,287.707092 144.937988,289.718811 148.830811,292.574005 
	C157.294479,285.040527 165.710312,277.549622 174.821320,270.025299 
	C175.699341,269.324615 176.577347,268.623962 177.948425,267.622345 
M249.435623,263.136841 
	C260.223755,256.309540 261.948517,244.409973 259.244537,232.874542 
	C255.308365,216.082336 241.726227,213.854401 227.808060,216.748184 
	C224.764481,217.380997 221.046249,219.000061 219.397186,221.382248 
	C211.942947,232.150406 210.669846,243.795822 216.932831,255.652603 
	C218.245758,258.138184 220.207138,260.634094 222.504791,262.183441 
	C230.895630,267.841553 239.889267,266.600800 249.435623,263.136841 
M354.097046,236.190018 
	C355.020966,237.698074 355.944885,239.206131 356.109070,239.474121 
	C360.861481,238.885437 364.684875,237.896698 368.348846,238.312607 
	C369.289337,238.419357 369.726868,242.956741 370.544983,246.018158 
	C363.407928,245.304474 357.999054,246.255646 354.129028,251.374191 
	C350.232452,256.527893 352.008820,264.820679 357.463989,265.596893 
	C362.354736,266.292786 367.640900,267.300690 371.329834,262.413239 
	C374.529663,265.830658 380.100708,266.890869 383.326965,264.748413 
	C384.010895,264.294189 384.800995,263.043579 384.617950,262.440308 
	C384.243195,261.205048 383.435913,259.915955 382.433624,259.117401 
	C381.693085,258.527405 380.361816,258.678802 378.985657,258.448273 
	C378.985657,252.981781 379.301514,247.815186 378.859192,242.714355 
	C378.619843,239.953979 377.735718,236.760544 376.013611,234.710938 
	C371.167603,228.943268 360.170929,229.545593 354.097046,236.190018 
M289.508026,263.049927 
	C290.087799,262.453827 290.684082,261.872772 291.244720,261.259216 
	C296.358673,255.662537 297.319824,247.211502 293.657410,240.114700 
	C290.174744,233.366241 283.318298,229.873657 275.545868,230.968475 
	C267.515991,232.099548 260.878876,242.423050 263.302612,252.875641 
	C264.664124,258.747253 266.911896,264.574921 273.382660,265.396973 
	C278.440369,266.039520 283.802643,264.284973 289.508026,263.049927 
M387.380646,217.159256 
	C386.778046,220.478180 386.133392,224.163147 390.611450,224.915665 
	C392.446503,225.224075 395.488159,224.057251 396.391205,222.585861 
	C397.275635,221.144852 396.660431,216.918900 395.787689,216.623825 
	C393.443939,215.831451 390.610626,216.487076 387.380646,217.159256 
M344.878021,215.355789 
	C341.698303,214.805115 338.042603,214.097870 337.270264,218.335800 
	C336.910431,220.310379 338.090485,223.503189 339.653717,224.593277 
	C340.898865,225.461563 345.140717,224.567245 345.644867,223.408218 
	C346.548706,221.330276 345.642609,218.465012 344.878021,215.355789 
z"/>
<path fill="#29ABDC" opacity="1.000000" stroke="none" 
	d="
M181.921936,263.462585 
	C180.597427,264.849182 179.272919,266.235779 177.336182,267.738220 
	C175.858017,268.588959 174.992065,269.323822 174.126129,270.058716 
	C165.710312,277.549622 157.294479,285.040527 148.830811,292.574005 
	C144.937988,289.718811 141.263382,287.707092 138.571213,284.789032 
	C136.992950,283.078308 136.316971,279.894470 136.426086,277.425934 
	C136.570557,274.157745 139.679749,275.044098 141.848022,275.013977 
	C145.340012,274.965546 148.833603,275.035706 152.325745,274.992889 
	C157.918228,274.924316 160.898758,272.059967 160.986816,266.610901 
	C161.053970,262.454071 161.070358,258.293762 160.981964,254.137711 
	C160.874359,249.077621 158.755585,247.030411 153.779373,247.002792 
	C150.286819,246.983398 146.792953,247.054413 143.301651,246.985336 
	C138.217957,246.884781 136.129242,244.838699 136.016495,239.830902 
	C135.937912,236.339981 135.891846,232.841782 136.025787,229.354309 
	C136.184692,225.217087 134.164612,222.688812 130.271744,222.243240 
	C126.332489,221.792343 122.175026,221.462692 118.382439,222.299881 
	C116.596519,222.694092 114.670486,225.772049 114.182823,227.942764 
	C113.471428,231.109375 113.999146,234.554428 113.999023,237.880768 
	C113.998741,246.019531 113.998840,246.019531 105.307510,247.535645 
	C104.146645,244.886261 103.344383,242.697128 102.730209,240.456451 
	C99.859154,229.981812 104.201469,218.596771 112.958176,213.502106 
	C123.297424,207.486710 134.359177,208.760696 142.673355,217.106750 
	C144.733597,219.174896 146.371384,221.663879 148.348343,224.141098 
	C149.111053,222.972992 149.728180,222.015381 150.357559,221.065887 
	C157.220093,210.712799 170.193878,206.949936 181.055359,212.160431 
	C191.922424,217.373581 197.428925,229.923065 193.110291,241.614655 
	C190.955185,247.448975 187.115448,252.653687 184.131653,258.193756 
	C183.232803,259.862640 182.649689,261.701569 181.921936,263.462585 
z"/>
<path fill="#65EBB7" opacity="1.000000" stroke="none" 
	d="
M182.208527,263.237946 
	C182.649689,261.701569 183.232803,259.862640 184.131653,258.193756 
	C187.115448,252.653687 190.955185,247.448975 193.110291,241.614655 
	C197.428925,229.923065 191.922424,217.373581 181.055359,212.160431 
	C170.193878,206.949936 157.220093,210.712799 150.357559,221.065887 
	C149.728180,222.015381 149.111053,222.972992 148.348343,224.141098 
	C146.371384,221.663879 144.733597,219.174896 142.673355,217.106750 
	C134.359177,208.760696 123.297424,207.486710 112.958176,213.502106 
	C104.201469,218.596771 99.859154,229.981812 102.730209,240.456451 
	C103.344383,242.697128 104.146645,244.886261 104.908951,247.465561 
	C102.953041,246.858170 100.227272,246.410446 99.070915,244.820984 
	C93.567604,237.256287 90.182358,228.734299 88.998619,219.380630 
	C87.852760,210.326279 95.257614,198.695526 104.323761,192.787872 
	C117.301605,184.331314 138.460861,190.159210 145.838669,203.408340 
	C146.359283,204.343246 147.003586,205.209259 147.958939,206.671387 
	C152.737534,198.186386 158.938095,192.215637 168.067169,189.925186 
	C182.546066,186.292480 194.840347,191.935822 202.488907,204.060074 
	C210.858353,217.327057 206.943542,230.161301 199.277695,241.992294 
	C194.425858,249.480286 188.138596,256.038208 182.208527,263.237946 
z"/>
<path fill="#1D42A1" opacity="1.000000" stroke="none" 
	d="
M249.156723,263.388885 
	C239.889267,266.600800 230.895630,267.841553 222.504791,262.183441 
	C220.207138,260.634094 218.245758,258.138184 216.932831,255.652603 
	C210.669846,243.795822 211.942947,232.150406 219.397186,221.382248 
	C221.046249,219.000061 224.764481,217.380997 227.808060,216.748184 
	C241.726227,213.854401 255.308365,216.082336 259.244537,232.874542 
	C261.948517,244.409973 260.223755,256.309540 249.156723,263.388885 
M224.009766,244.205551 
	C224.444336,246.625885 224.647720,249.117325 225.365219,251.450653 
	C226.579254,255.398712 233.267853,260.276886 236.608215,259.948364 
	C242.386230,259.380127 247.573135,254.769073 248.979477,249.054382 
	C250.507141,242.846649 250.605042,236.819565 247.962601,230.770828 
	C245.698227,225.587479 241.715744,222.176498 236.719467,222.010117 
	C231.998962,221.852905 226.839584,225.277069 225.405838,230.577194 
	C224.305908,234.643219 224.419601,239.037567 224.009766,244.205551 
z"/>
<path fill="#1D42A1" opacity="1.000000" stroke="none" 
	d="
M354.077698,235.817444 
	C360.170929,229.545593 371.167603,228.943268 376.013611,234.710938 
	C377.735718,236.760544 378.619843,239.953979 378.859192,242.714355 
	C379.301514,247.815186 378.985657,252.981781 378.985657,258.448273 
	C380.361816,258.678802 381.693085,258.527405 382.433624,259.117401 
	C383.435913,259.915955 384.243195,261.205048 384.617950,262.440308 
	C384.800995,263.043579 384.010895,264.294189 383.326965,264.748413 
	C380.100708,266.890869 374.529663,265.830658 371.329834,262.413239 
	C367.640900,267.300690 362.354736,266.292786 357.463989,265.596893 
	C352.008820,264.820679 350.232452,256.527893 354.129028,251.374191 
	C357.999054,246.255646 363.407928,245.304474 370.544983,246.018158 
	C369.726868,242.956741 369.289337,238.419357 368.348846,238.312607 
	C364.684875,237.896698 360.861481,238.885437 356.109070,239.474121 
	C355.944885,239.206131 355.020966,237.698074 354.077698,235.817444 
M364.649658,258.989716 
	C370.079163,259.078033 369.881744,255.422012 369.787750,251.673660 
	C368.091187,251.833771 366.400452,251.542770 365.275299,252.208160 
	C363.697571,253.141220 362.413177,254.696945 361.347107,256.226044 
	C361.195038,256.444153 362.972839,258.007721 364.649658,258.989716 
z"/>
<path fill="#1D42A1" opacity="1.000000" stroke="none" 
	d="
M289.268799,263.322723 
	C283.802643,264.284973 278.440369,266.039520 273.382660,265.396973 
	C266.911896,264.574921 264.664124,258.747253 263.302612,252.875641 
	C260.878876,242.423050 267.515991,232.099548 275.545868,230.968475 
	C283.318298,229.873657 290.174744,233.366241 293.657410,240.114700 
	C297.319824,247.211502 296.358673,255.662537 291.244720,261.259216 
	C290.684082,261.872772 290.087799,262.453827 289.268799,263.322723 
M273.118134,254.945496 
	C274.599609,257.786224 275.464844,261.020294 280.100098,260.100433 
	C284.751190,259.177460 285.709045,256.036133 285.961365,252.251389 
	C286.148804,249.439743 286.766998,246.258530 285.736694,243.870331 
	C284.590576,241.213638 282.142731,238.016907 279.630798,237.316071 
	C276.096375,236.329971 273.552887,239.557617 273.098114,243.070969 
	C272.627655,246.705475 273.018311,250.451447 273.118134,254.945496 
z"/>
<path fill="#1D42A1" opacity="1.000000" stroke="none" 
	d="
M321.155762,240.383835 
	C319.087982,238.635315 317.274078,237.308121 314.124146,238.884277 
	C310.992004,240.451492 309.758270,242.219360 309.913757,245.710297 
	C310.186920,251.843445 309.990082,257.997528 309.990082,264.964722 
	C307.414917,264.964722 305.173309,264.964722 302.520966,264.474548 
	C301.982819,254.975998 301.855408,245.967590 301.727966,236.959183 
	C301.163116,235.618057 300.598267,234.276932 299.545197,231.776627 
	C303.453003,231.960968 306.737335,232.115906 310.021667,232.270828 
	C309.998444,232.763168 309.975250,233.255493 309.952026,233.747833 
	C319.196777,228.282898 326.527771,230.405457 329.578186,240.152542 
	C329.311646,248.818710 329.273926,256.828827 329.236206,264.838928 
	C327.101929,264.870911 324.967682,264.902893 322.359070,264.411713 
	C321.641785,256.053650 321.398773,248.218735 321.155762,240.383835 
z"/>
<path fill="#1D42A1" opacity="1.000000" stroke="none" 
	d="
M337.755615,234.927521 
	C338.173706,233.960327 338.471924,232.248901 339.031219,232.158844 
	C341.103729,231.825104 343.262329,232.025940 345.847321,232.025940 
	C345.847321,244.639023 346.171753,256.870087 345.683624,269.068634 
	C345.494995,273.783386 342.389496,277.691833 337.718994,279.547302 
	C336.583069,279.998596 334.986816,279.291199 333.602234,279.116577 
	C333.815643,277.813995 333.819214,276.430115 334.285889,275.225677 
	C335.270264,272.685272 336.497040,270.238770 337.790955,266.933960 
	C337.890259,255.718613 337.822937,245.323074 337.755615,234.927521 
z"/>
<path fill="#1D42A1" opacity="1.000000" stroke="none" 
	d="
M387.756042,234.927841 
	C388.146454,233.959549 388.419434,232.238144 388.947906,232.155777 
	C391.027679,231.831589 393.187775,232.022964 395.683044,232.022964 
	C395.683044,242.996918 395.683044,253.647964 395.683044,264.963196 
	C393.382294,264.963196 391.135773,264.963196 388.473572,264.471130 
	C387.957336,254.295349 387.856720,244.611588 387.756042,234.927841 
z"/>
<path fill="#1D42A1" opacity="1.000000" stroke="none" 
	d="
M387.676208,216.863480 
	C390.610626,216.487076 393.443939,215.831451 395.787689,216.623825 
	C396.660431,216.918900 397.275635,221.144852 396.391205,222.585861 
	C395.488159,224.057251 392.446503,225.224075 390.611450,224.915665 
	C386.133392,224.163147 386.778046,220.478180 387.676208,216.863480 
z"/>
<path fill="#1D42A1" opacity="1.000000" stroke="none" 
	d="
M345.185486,215.642303 
	C345.642609,218.465012 346.548706,221.330276 345.644867,223.408218 
	C345.140717,224.567245 340.898865,225.461563 339.653717,224.593277 
	C338.090485,223.503189 336.910431,220.310379 337.270264,218.335800 
	C338.042603,214.097870 341.698303,214.805115 345.185486,215.642303 
z"/>
<path fill="#65EBB7" opacity="1.000000" stroke="none" 
	d="
M337.403870,235.176773 
	C337.822937,245.323074 337.890259,255.718613 337.837738,266.573029 
	C337.450775,262.648773 337.027924,258.268311 336.954132,253.881943 
	C336.850647,247.732269 337.006927,241.578201 337.403870,235.176773 
z"/>
<path fill="#65EBB7" opacity="1.000000" stroke="none" 
	d="
M387.404236,235.177002 
	C387.856720,244.611588 387.957336,254.295349 388.024048,264.439392 
	C387.632874,264.132904 386.967682,263.367126 386.965271,262.599213 
	C386.936890,253.541718 387.007721,244.483902 387.404236,235.177002 
z"/>
<path fill="#65EBB7" opacity="1.000000" stroke="none" 
	d="
M301.390839,237.220673 
	C301.855408,245.967590 301.982819,254.975998 302.076721,264.444794 
	C301.657867,264.170898 300.940247,263.437561 300.938110,262.702148 
	C300.913696,254.295670 300.998260,245.888870 301.390839,237.220673 
z"/>
<path fill="#29ABDC" opacity="1.000000" stroke="none" 
	d="
M321.127197,240.810150 
	C321.398773,248.218735 321.641785,256.053650 321.907410,264.343079 
	C321.634308,259.719421 321.278503,254.643753 321.066742,249.562088 
	C320.951294,246.792145 321.080017,244.012009 321.127197,240.810150 
z"/>
<path fill="#65EBB7" opacity="1.000000" stroke="none" 
	d="
M329.534882,264.558868 
	C329.273926,256.828827 329.311646,248.818710 329.628693,240.524658 
	C329.883179,248.253418 329.858368,256.266083 329.534882,264.558868 
z"/>
<path fill="#65EBB7" opacity="1.000000" stroke="none" 
	d="
M174.473724,270.041992 
	C174.992065,269.323822 175.858017,268.588959 177.089661,267.888672 
	C176.577347,268.623962 175.699341,269.324615 174.473724,270.041992 
z"/>
<path fill="#000000" opacity="1.000000" stroke="none" 
	d="
M224.001678,243.745728 
	C224.419601,239.037567 224.305908,234.643219 225.405838,230.577194 
	C226.839584,225.277069 231.998962,221.852905 236.719467,222.010117 
	C241.715744,222.176498 245.698227,225.587479 247.962601,230.770828 
	C250.605042,236.819565 250.507141,242.846649 248.979477,249.054382 
	C247.573135,254.769073 242.386230,259.380127 236.608215,259.948364 
	C233.267853,260.276886 226.579254,255.398712 225.365219,251.450653 
	C224.647720,249.117325 224.444336,246.625885 224.001678,243.745728 
z"/>
<path fill="#000000" opacity="1.000000" stroke="none" 
	d="
M364.253571,258.969147 
	C362.972839,258.007721 361.195038,256.444153 361.347107,256.226044 
	C362.413177,254.696945 363.697571,253.141220 365.275299,252.208160 
	C366.400452,251.542770 368.091187,251.833771 369.787750,251.673660 
	C369.881744,255.422012 370.079163,259.078033 364.253571,258.969147 
z"/>
<path fill="#000000" opacity="1.000000" stroke="none" 
	d="
M273.075195,254.547073 
	C273.018311,250.451447 272.627655,246.705475 273.098114,243.070969 
	C273.552887,239.557617 276.096375,236.329971 279.630798,237.316071 
	C282.142731,238.016907 284.590576,241.213638 285.736694,243.870331 
	C286.766998,246.258530 286.148804,249.439743 285.961365,252.251389 
	C285.709045,256.036133 284.751190,259.177460 280.100098,260.100433 
	C275.464844,261.020294 274.599609,257.786224 273.075195,254.547073 
z"/>
</svg>